<?xml version="1.0" encoding="us-ascii" standalone="no"?><svg xmlns="http://www.w3.org/2000/svg" xmlns:xlink="http://www.w3.org/1999/xlink" contentStyleType="text/css" height="710px" preserveAspectRatio="none" style="width:1002px;height:710px;background:#FFFFFF;" version="1.1" viewBox="0 0 1002 710" width="1002px" zoomAndPan="magnify"><defs/><g><!--class Column--><g id="elem_Column"><rect codeLine="1" fill="#F1F1F1" height="64.2969" id="Column" rx="2.5" ry="2.5" style="stroke:#181818;stroke-width:0.5;" width="207" x="125.2934" y="321.5"/><ellipse cx="198.0434" cy="337.5" fill="#ADD1B2" rx="11" ry="11" style="stroke:#181818;stroke-width:1.0;"/><path d="M201.0121,343.1406 Q200.434,343.4375 199.7934,343.5781 Q199.1527,343.7344 198.4496,343.7344 Q195.9496,343.7344 194.6215,342.0938 Q193.309,340.4375 193.309,337.3125 Q193.309,334.1875 194.6215,332.5313 Q195.9496,330.875 198.4496,330.875 Q199.1527,330.875 199.7934,331.0313 Q200.4496,331.1875 201.0121,331.4844 L201.0121,334.2031 Q200.3871,333.625 199.7934,333.3594 Q199.1996,333.0781 198.5746,333.0781 Q197.2309,333.0781 196.5434,334.1563 Q195.8559,335.2188 195.8559,337.3125 Q195.8559,339.4063 196.5434,340.4844 Q197.2309,341.5469 198.5746,341.5469 Q199.1996,341.5469 199.7934,341.2813 Q200.3871,341 201.0121,340.4219 L201.0121,343.1406 Z " fill="#000000"/><text fill="#000000" font-family="sans-serif" font-size="14" lengthAdjust="spacing" textLength="53" x="218.5434" y="342.3467">Column</text><line style="stroke:#181818;stroke-width:0.5;" x1="126.2934" x2="331.2934" y1="353.5" y2="353.5"/><ellipse cx="136.2934" cy="367.1484" fill="none" rx="3" ry="3" style="stroke:#038048;stroke-width:1.0;"/><text fill="#000000" font-family="sans-serif" font-size="14" lengthAdjust="spacing" textLength="181" x="145.2934" y="370.4951">Name : string &#171;get&#187; &#171;set&#187;</text><line style="stroke:#181818;stroke-width:0.5;" x1="126.2934" x2="331.2934" y1="377.7969" y2="377.7969"/></g><!--class DataTypeBase--><g id="elem_DataTypeBase"><rect codeLine="1" fill="#F1F1F1" height="80.5938" id="DataTypeBase" rx="2.5" ry="2.5" style="stroke:#181818;stroke-width:0.5;" width="275" x="91.2934" y="421"/><ellipse cx="174.0434" cy="437" fill="#A9DCDF" rx="11" ry="11" style="stroke:#181818;stroke-width:1.0;"/><path d="M174.1527,432.3438 L172.9965,437.4219 L175.3246,437.4219 L174.1527,432.3438 Z M172.6684,430.1094 L175.6527,430.1094 L179.0121,442.5 L176.559,442.5 L175.7934,439.4375 L172.5121,439.4375 L171.7621,442.5 L169.3246,442.5 L172.6684,430.1094 Z " fill="#000000"/><text fill="#000000" font-family="sans-serif" font-size="14" font-style="italic" lengthAdjust="spacing" textLength="101" x="194.5434" y="441.8467">DataTypeBase</text><line style="stroke:#181818;stroke-width:0.5;" x1="92.2934" x2="365.2934" y1="453" y2="453"/><ellipse cx="102.2934" cy="466.6484" fill="none" rx="3" ry="3" style="stroke:#038048;stroke-width:1.0;"/><text fill="#000000" font-family="sans-serif" font-size="14" lengthAdjust="spacing" textLength="249" x="111.2934" y="469.9951">IsNullable : bool &#171;get&#187; &#171;set&#187; = false</text><line style="stroke:#181818;stroke-width:0.5;" x1="92.2934" x2="365.2934" y1="477.2969" y2="477.2969"/><ellipse cx="102.2934" cy="490.9453" fill="#84BE84" rx="3" ry="3" style="stroke:#038048;stroke-width:1.0;"/><text fill="#000000" font-family="sans-serif" font-size="14" lengthAdjust="spacing" textLength="211" x="111.2934" y="494.292">DataTypeBase(isNullable:bool)</text></g><!--class Table--><g id="elem_Table"><rect codeLine="1" fill="#F1F1F1" height="96.8906" id="Table" rx="2.5" ry="2.5" style="stroke:#181818;stroke-width:0.5;" width="253" x="102.2934" y="7"/><ellipse cx="205.5434" cy="23" fill="#ADD1B2" rx="11" ry="11" style="stroke:#181818;stroke-width:1.0;"/><path d="M208.5121,28.6406 Q207.934,28.9375 207.2934,29.0781 Q206.6527,29.2344 205.9496,29.2344 Q203.4496,29.2344 202.1215,27.5938 Q200.809,25.9375 200.809,22.8125 Q200.809,19.6875 202.1215,18.0313 Q203.4496,16.375 205.9496,16.375 Q206.6527,16.375 207.2934,16.5313 Q207.9496,16.6875 208.5121,16.9844 L208.5121,19.7031 Q207.8871,19.125 207.2934,18.8594 Q206.6996,18.5781 206.0746,18.5781 Q204.7309,18.5781 204.0434,19.6563 Q203.3559,20.7188 203.3559,22.8125 Q203.3559,24.9063 204.0434,25.9844 Q204.7309,27.0469 206.0746,27.0469 Q206.6996,27.0469 207.2934,26.7813 Q207.8871,26.5 208.5121,25.9219 L208.5121,28.6406 Z " fill="#000000"/><text fill="#000000" font-family="sans-serif" font-size="14" lengthAdjust="spacing" textLength="38" x="226.0434" y="27.8467">Table</text><line style="stroke:#181818;stroke-width:0.5;" x1="103.2934" x2="354.2934" y1="39" y2="39"/><ellipse cx="113.2934" cy="52.6484" fill="none" rx="3" ry="3" style="stroke:#038048;stroke-width:1.0;"/><text fill="#000000" font-family="sans-serif" font-size="14" lengthAdjust="spacing" textLength="181" x="122.2934" y="55.9951">Name : string &#171;get&#187; &#171;set&#187;</text><ellipse cx="113.2934" cy="68.9453" fill="none" rx="3" ry="3" style="stroke:#038048;stroke-width:1.0;"/><text fill="#000000" font-family="sans-serif" font-size="14" lengthAdjust="spacing" textLength="197" x="122.2934" y="72.292">Schema : string &#171;get&#187; &#171;set&#187;</text><ellipse cx="113.2934" cy="85.2422" fill="none" rx="3" ry="3" style="stroke:#038048;stroke-width:1.0;"/><text fill="#000000" font-family="sans-serif" font-size="14" lengthAdjust="spacing" textLength="227" x="122.2934" y="88.5889">Description : string? &#171;get&#187; &#171;set&#187;</text><line style="stroke:#181818;stroke-width:0.5;" x1="103.2934" x2="354.2934" y1="95.8906" y2="95.8906"/></g><!--class ICollection`1--><g id="elem_ICollection`1"><rect codeLine="4" fill="#F1F1F1" height="48" id="ICollection`1" rx="2.5" ry="2.5" style="stroke:#181818;stroke-width:0.5;" width="130" x="163.7934" y="238.5"/><ellipse cx="178.7934" cy="254.5" fill="#ADD1B2" rx="11" ry="11" style="stroke:#181818;stroke-width:1.0;"/><path d="M181.7621,260.1406 Q181.184,260.4375 180.5434,260.5781 Q179.9027,260.7344 179.1996,260.7344 Q176.6996,260.7344 175.3715,259.0938 Q174.059,257.4375 174.059,254.3125 Q174.059,251.1875 175.3715,249.5313 Q176.6996,247.875 179.1996,247.875 Q179.9027,247.875 180.5434,248.0313 Q181.1996,248.1875 181.7621,248.4844 L181.7621,251.2031 Q181.1371,250.625 180.5434,250.3594 Q179.9496,250.0781 179.3246,250.0781 Q177.9809,250.0781 177.2934,251.1563 Q176.6059,252.2188 176.6059,254.3125 Q176.6059,256.4063 177.2934,257.4844 Q177.9809,258.5469 179.3246,258.5469 Q179.9496,258.5469 180.5434,258.2813 Q181.1371,258 181.7621,257.4219 L181.7621,260.1406 Z " fill="#000000"/><text fill="#000000" font-family="sans-serif" font-size="14" lengthAdjust="spacing" textLength="87" x="192.7934" y="259.3467">ICollection`1</text><rect fill="#FFFFFF" height="15.9688" style="stroke:#181818;stroke-width:1.0;stroke-dasharray:2.0,2.0;" width="9" x="287.7934" y="235.5"/><text fill="#000000" font-family="sans-serif" font-size="12" font-style="italic" lengthAdjust="spacing" textLength="7" x="288.7934" y="247.6387">T</text><line style="stroke:#181818;stroke-width:0.5;" x1="164.7934" x2="292.7934" y1="270.5" y2="270.5"/><line style="stroke:#181818;stroke-width:0.5;" x1="164.7934" x2="292.7934" y1="278.5" y2="278.5"/></g><!--class DbModel--><g id="elem_DbModel"><rect codeLine="1" fill="#F1F1F1" height="64.2969" id="DbModel" rx="2.5" ry="2.5" style="stroke:#181818;stroke-width:0.5;" width="207" x="125.2934" y="139.5"/><ellipse cx="193.5434" cy="155.5" fill="#ADD1B2" rx="11" ry="11" style="stroke:#181818;stroke-width:1.0;"/><path d="M196.5121,161.1406 Q195.934,161.4375 195.2934,161.5781 Q194.6527,161.7344 193.9496,161.7344 Q191.4496,161.7344 190.1215,160.0938 Q188.809,158.4375 188.809,155.3125 Q188.809,152.1875 190.1215,150.5313 Q191.4496,148.875 193.9496,148.875 Q194.6527,148.875 195.2934,149.0313 Q195.9496,149.1875 196.5121,149.4844 L196.5121,152.2031 Q195.8871,151.625 195.2934,151.3594 Q194.6996,151.0781 194.0746,151.0781 Q192.7309,151.0781 192.0434,152.1563 Q191.3559,153.2188 191.3559,155.3125 Q191.3559,157.4063 192.0434,158.4844 Q192.7309,159.5469 194.0746,159.5469 Q194.6996,159.5469 195.2934,159.2813 Q195.8871,159 196.5121,158.4219 L196.5121,161.1406 Z " fill="#000000"/><text fill="#000000" font-family="sans-serif" font-size="14" lengthAdjust="spacing" textLength="62" x="214.0434" y="160.3467">DbModel</text><line style="stroke:#181818;stroke-width:0.5;" x1="126.2934" x2="331.2934" y1="171.5" y2="171.5"/><ellipse cx="136.2934" cy="185.1484" fill="none" rx="3" ry="3" style="stroke:#038048;stroke-width:1.0;"/><text fill="#000000" font-family="sans-serif" font-size="14" lengthAdjust="spacing" textLength="181" x="145.2934" y="188.4951">Name : string &#171;get&#187; &#171;set&#187;</text><line style="stroke:#181818;stroke-width:0.5;" x1="126.2934" x2="331.2934" y1="195.7969" y2="195.7969"/></g><!--class UnknownDataType--><g id="elem_UnknownDataType"><rect codeLine="5" fill="#F1F1F1" height="105.1563" id="UnknownDataType" rx="2.5" ry="2.5" style="stroke:#181818;stroke-width:0.5;" width="389" x="426.2934" y="211"/><ellipse cx="551.0434" cy="231.1328" fill="#ADD1B2" rx="11" ry="11" style="stroke:#181818;stroke-width:1.0;"/><path d="M554.0121,236.7734 Q553.434,237.0703 552.7934,237.2109 Q552.1527,237.3672 551.4496,237.3672 Q548.9496,237.3672 547.6215,235.7266 Q546.309,234.0703 546.309,230.9453 Q546.309,227.8203 547.6215,226.1641 Q548.9496,224.5078 551.4496,224.5078 Q552.1527,224.5078 552.7934,224.6641 Q553.4496,224.8203 554.0121,225.1172 L554.0121,227.8359 Q553.3871,227.2578 552.7934,226.9922 Q552.1996,226.7109 551.5746,226.7109 Q550.2309,226.7109 549.5434,227.7891 Q548.8559,228.8516 548.8559,230.9453 Q548.8559,233.0391 549.5434,234.1172 Q550.2309,235.1797 551.5746,235.1797 Q552.1996,235.1797 552.7934,234.9141 Q553.3871,234.6328 554.0121,234.0547 L554.0121,236.7734 Z " fill="#000000"/><text fill="#000000" font-family="sans-serif" font-size="12" font-style="italic" lengthAdjust="spacing" textLength="55" x="609.5434" y="227.1387">&#171;sealed&#187;</text><text fill="#000000" font-family="sans-serif" font-size="14" lengthAdjust="spacing" textLength="131" x="571.5434" y="242.9639">UnknownDataType</text><line style="stroke:#181818;stroke-width:0.5;" x1="427.2934" x2="814.2934" y1="251.2656" y2="251.2656"/><ellipse cx="437.2934" cy="264.9141" fill="none" rx="3" ry="3" style="stroke:#038048;stroke-width:1.0;"/><text fill="#000000" font-family="sans-serif" font-size="14" lengthAdjust="spacing" textLength="279" x="446.2934" y="268.2607">&#171;const&#187; Descriptor : string = "unknown"</text><ellipse cx="437.2934" cy="281.2109" fill="none" rx="3" ry="3" style="stroke:#038048;stroke-width:1.0;"/><text fill="#000000" font-family="sans-serif" font-size="14" lengthAdjust="spacing" textLength="212" x="446.2934" y="284.5576">StoreType : string &#171;get&#187; &#171;set&#187;</text><line style="stroke:#181818;stroke-width:0.5;" x1="427.2934" x2="814.2934" y1="291.8594" y2="291.8594"/><ellipse cx="437.2934" cy="305.5078" fill="#84BE84" rx="3" ry="3" style="stroke:#038048;stroke-width:1.0;"/><text fill="#000000" font-family="sans-serif" font-size="14" lengthAdjust="spacing" textLength="363" x="446.2934" y="308.8545">UnknownDataType(typeName:string, isNullable:bool)</text></g><!--class SimpleType--><g id="elem_SimpleType"><rect codeLine="10" fill="#F1F1F1" height="88.8594" id="SimpleType" rx="2.5" ry="2.5" style="stroke:#181818;stroke-width:0.5;" width="350" x="445.7934" y="351"/><ellipse cx="576.5434" cy="371.1328" fill="#ADD1B2" rx="11" ry="11" style="stroke:#181818;stroke-width:1.0;"/><path d="M579.5121,376.7734 Q578.934,377.0703 578.2934,377.2109 Q577.6527,377.3672 576.9496,377.3672 Q574.4496,377.3672 573.1215,375.7266 Q571.809,374.0703 571.809,370.9453 Q571.809,367.8203 573.1215,366.1641 Q574.4496,364.5078 576.9496,364.5078 Q577.6527,364.5078 578.2934,364.6641 Q578.9496,364.8203 579.5121,365.1172 L579.5121,367.8359 Q578.8871,367.2578 578.2934,366.9922 Q577.6996,366.7109 577.0746,366.7109 Q575.7309,366.7109 575.0434,367.7891 Q574.3559,368.8516 574.3559,370.9453 Q574.3559,373.0391 575.0434,374.1172 Q575.7309,375.1797 577.0746,375.1797 Q577.6996,375.1797 578.2934,374.9141 Q578.8871,374.6328 579.5121,374.0547 L579.5121,376.7734 Z " fill="#000000"/><text fill="#000000" font-family="sans-serif" font-size="12" font-style="italic" lengthAdjust="spacing" textLength="55" x="609.5434" y="367.1387">&#171;sealed&#187;</text><text fill="#000000" font-family="sans-serif" font-size="14" lengthAdjust="spacing" textLength="80" x="597.0434" y="382.9639">SimpleType</text><line style="stroke:#181818;stroke-width:0.5;" x1="446.7934" x2="794.7934" y1="391.2656" y2="391.2656"/><ellipse cx="456.7934" cy="404.9141" fill="none" rx="3" ry="3" style="stroke:#038048;stroke-width:1.0;"/><text fill="#000000" font-family="sans-serif" font-size="14" lengthAdjust="spacing" textLength="260" x="465.7934" y="408.2607">&#171;const&#187; Descriptor : string = "simple"</text><line style="stroke:#181818;stroke-width:0.5;" x1="446.7934" x2="794.7934" y1="415.5625" y2="415.5625"/><ellipse cx="456.7934" cy="429.2109" fill="#84BE84" rx="3" ry="3" style="stroke:#038048;stroke-width:1.0;"/><text fill="#000000" font-family="sans-serif" font-size="14" lengthAdjust="spacing" textLength="324" x="465.7934" y="432.5576">SimpleType(simpleType:Types, isNullable:bool)</text></g><!--class NVarChar--><g id="elem_NVarChar"><rect codeLine="14" fill="#F1F1F1" height="105.1563" id="NVarChar" rx="2.5" ry="2.5" style="stroke:#181818;stroke-width:0.5;" width="304" x="468.7934" y="475"/><ellipse cx="584.5434" cy="495.1328" fill="#ADD1B2" rx="11" ry="11" style="stroke:#181818;stroke-width:1.0;"/><path d="M587.5121,500.7734 Q586.934,501.0703 586.2934,501.2109 Q585.6527,501.3672 584.9496,501.3672 Q582.4496,501.3672 581.1215,499.7266 Q579.809,498.0703 579.809,494.9453 Q579.809,491.8203 581.1215,490.1641 Q582.4496,488.5078 584.9496,488.5078 Q585.6527,488.5078 586.2934,488.6641 Q586.9496,488.8203 587.5121,489.1172 L587.5121,491.8359 Q586.8871,491.2578 586.2934,490.9922 Q585.6996,490.7109 585.0746,490.7109 Q583.7309,490.7109 583.0434,491.7891 Q582.3559,492.8516 582.3559,494.9453 Q582.3559,497.0391 583.0434,498.1172 Q583.7309,499.1797 585.0746,499.1797 Q585.6996,499.1797 586.2934,498.9141 Q586.8871,498.6328 587.5121,498.0547 L587.5121,500.7734 Z " fill="#000000"/><text fill="#000000" font-family="sans-serif" font-size="12" font-style="italic" lengthAdjust="spacing" textLength="55" x="609.5434" y="491.1387">&#171;sealed&#187;</text><text fill="#000000" font-family="sans-serif" font-size="14" lengthAdjust="spacing" textLength="64" x="605.0434" y="506.9639">NVarChar</text><line style="stroke:#181818;stroke-width:0.5;" x1="469.7934" x2="771.7934" y1="515.2656" y2="515.2656"/><ellipse cx="479.7934" cy="528.9141" fill="none" rx="3" ry="3" style="stroke:#038048;stroke-width:1.0;"/><text fill="#000000" font-family="sans-serif" font-size="14" lengthAdjust="spacing" textLength="278" x="488.7934" y="532.2607">&#171;const&#187; Descriptor : string = "nVarChar"</text><ellipse cx="479.7934" cy="545.2109" fill="none" rx="3" ry="3" style="stroke:#038048;stroke-width:1.0;"/><text fill="#000000" font-family="sans-serif" font-size="14" lengthAdjust="spacing" textLength="167" x="488.7934" y="548.5576">Length : int &#171;get&#187; &#171;set&#187;</text><line style="stroke:#181818;stroke-width:0.5;" x1="469.7934" x2="771.7934" y1="555.8594" y2="555.8594"/><ellipse cx="479.7934" cy="569.5078" fill="#84BE84" rx="3" ry="3" style="stroke:#038048;stroke-width:1.0;"/><text fill="#000000" font-family="sans-serif" font-size="14" lengthAdjust="spacing" textLength="248" x="488.7934" y="572.8545">NVarChar(length:int, isNullable:bool)</text></g><!--class NVarCharMax--><g id="elem_NVarCharMax"><rect codeLine="19" fill="#F1F1F1" height="88.8594" id="NVarCharMax" rx="2.5" ry="2.5" style="stroke:#181818;stroke-width:0.5;" width="331" x="455.2934" y="615"/><ellipse cx="571.0434" cy="635.1328" fill="#ADD1B2" rx="11" ry="11" style="stroke:#181818;stroke-width:1.0;"/><path d="M574.0121,640.7734 Q573.434,641.0703 572.7934,641.2109 Q572.1527,641.3672 571.4496,641.3672 Q568.9496,641.3672 567.6215,639.7266 Q566.309,638.0703 566.309,634.9453 Q566.309,631.8203 567.6215,630.1641 Q568.9496,628.5078 571.4496,628.5078 Q572.1527,628.5078 572.7934,628.6641 Q573.4496,628.8203 574.0121,629.1172 L574.0121,631.8359 Q573.3871,631.2578 572.7934,630.9922 Q572.1996,630.7109 571.5746,630.7109 Q570.2309,630.7109 569.5434,631.7891 Q568.8559,632.8516 568.8559,634.9453 Q568.8559,637.0391 569.5434,638.1172 Q570.2309,639.1797 571.5746,639.1797 Q572.1996,639.1797 572.7934,638.9141 Q573.3871,638.6328 574.0121,638.0547 L574.0121,640.7734 Z " fill="#000000"/><text fill="#000000" font-family="sans-serif" font-size="12" font-style="italic" lengthAdjust="spacing" textLength="55" x="609.5434" y="631.1387">&#171;sealed&#187;</text><text fill="#000000" font-family="sans-serif" font-size="14" lengthAdjust="spacing" textLength="91" x="591.5434" y="646.9639">NVarCharMax</text><line style="stroke:#181818;stroke-width:0.5;" x1="456.2934" x2="785.2934" y1="655.2656" y2="655.2656"/><ellipse cx="466.2934" cy="668.9141" fill="none" rx="3" ry="3" style="stroke:#038048;stroke-width:1.0;"/><text fill="#000000" font-family="sans-serif" font-size="14" lengthAdjust="spacing" textLength="305" x="475.2934" y="672.2607">&#171;const&#187; Descriptor : string = "nVarCharMax"</text><line style="stroke:#181818;stroke-width:0.5;" x1="456.2934" x2="785.2934" y1="679.5625" y2="679.5625"/><ellipse cx="466.2934" cy="693.2109" fill="#84BE84" rx="3" ry="3" style="stroke:#038048;stroke-width:1.0;"/><text fill="#000000" font-family="sans-serif" font-size="14" lengthAdjust="spacing" textLength="201" x="475.2934" y="696.5576">NVarCharMax(isNullable:bool)</text></g><!--class Types--><g id="elem_Types"><rect codeLine="23" fill="#F1F1F1" height="292.4531" id="Types" rx="2.5" ry="2.5" style="stroke:#181818;stroke-width:0.5;" width="120" x="875.2934" y="249.5"/><ellipse cx="910.9934" cy="265.5" fill="#EB937F" rx="11" ry="11" style="stroke:#181818;stroke-width:1.0;"/><path d="M915.1027,271.5 L907.384,271.5 L907.384,259.1094 L915.1027,259.1094 L915.1027,261.2656 L909.8371,261.2656 L909.8371,263.9375 L914.6027,263.9375 L914.6027,266.0938 L909.8371,266.0938 L909.8371,269.3438 L915.1027,269.3438 L915.1027,271.5 Z " fill="#000000"/><text fill="#000000" font-family="sans-serif" font-size="14" lengthAdjust="spacing" textLength="42" x="929.5934" y="270.3467">Types</text><line style="stroke:#181818;stroke-width:0.5;" x1="876.2934" x2="994.2934" y1="281.5" y2="281.5"/><text fill="#000000" font-family="sans-serif" font-size="14" lengthAdjust="spacing" textLength="81" x="881.2934" y="298.4951">TinyInteger,</text><text fill="#000000" font-family="sans-serif" font-size="14" lengthAdjust="spacing" textLength="89" x="881.2934" y="314.792">SmallInteger,</text><text fill="#000000" font-family="sans-serif" font-size="14" lengthAdjust="spacing" textLength="53" x="881.2934" y="331.0889">Integer,</text><text fill="#000000" font-family="sans-serif" font-size="14" lengthAdjust="spacing" textLength="75" x="881.2934" y="347.3857">BigInteger,</text><text fill="#000000" font-family="sans-serif" font-size="14" lengthAdjust="spacing" textLength="50" x="881.2934" y="363.6826">Money,</text><text fill="#000000" font-family="sans-serif" font-size="14" lengthAdjust="spacing" textLength="37" x="881.2934" y="379.9795">Float,</text><text fill="#000000" font-family="sans-serif" font-size="14" lengthAdjust="spacing" textLength="59" x="881.2934" y="396.2764">Decimal,</text><text fill="#000000" font-family="sans-serif" font-size="14" lengthAdjust="spacing" textLength="61" x="881.2934" y="412.5732">Numeric,</text><text fill="#000000" font-family="sans-serif" font-size="14" lengthAdjust="spacing" textLength="61" x="881.2934" y="428.8701">Boolean,</text><text fill="#000000" font-family="sans-serif" font-size="14" lengthAdjust="spacing" textLength="37" x="881.2934" y="445.167">Date,</text><text fill="#000000" font-family="sans-serif" font-size="14" lengthAdjust="spacing" textLength="67" x="881.2934" y="461.4639">Datetime,</text><text fill="#000000" font-family="sans-serif" font-size="14" lengthAdjust="spacing" textLength="76" x="881.2934" y="477.7607">Datetime2,</text><text fill="#000000" font-family="sans-serif" font-size="14" lengthAdjust="spacing" textLength="108" x="881.2934" y="494.0576">DatetimeOffset,</text><text fill="#000000" font-family="sans-serif" font-size="14" lengthAdjust="spacing" textLength="81" x="881.2934" y="510.3545">Timestamp,</text><text fill="#000000" font-family="sans-serif" font-size="14" lengthAdjust="spacing" textLength="38" x="881.2934" y="526.6514">Time,</text><line style="stroke:#181818;stroke-width:0.5;" x1="876.2934" x2="994.2934" y1="533.9531" y2="533.9531"/></g><!--link Column to DataTypeBase--><g id="link_Column_DataTypeBase"><path codeLine="4" d="M228.7934,397.65 C228.7934,397.65 228.7934,405.04 228.7934,414.79 " fill="none" id="Column-DataTypeBase" style="stroke:#181818;stroke-width:1.0;"/><polygon fill="none" points="228.7934,385.65,224.7934,391.65,228.7934,397.65,232.7934,391.65,228.7934,385.65" style="stroke:#181818;stroke-width:1.0;"/><polygon fill="#181818" points="228.7934,420.79,232.7934,411.79,228.7934,415.79,224.7934,411.79,228.7934,420.79" style="stroke:#181818;stroke-width:1.0;"/><text fill="#000000" font-family="sans-serif" font-size="13" lengthAdjust="spacing" textLength="61" x="162.7418" y="409.9168">DataType</text></g><!--link Table to ICollection`1--><g id="link_Table_ICollection`1"><path codeLine="8" d="M116.5945,109.3516 C95.9845,119.2416 91.2934,121.5 91.2934,121.5 C91.2934,121.5 71.2934,133.17 71.2934,133.17 C71.2934,133.17 71.2934,208.83 71.2934,208.83 C71.2934,208.83 91.2934,220.5 91.2934,220.5 C91.2934,220.5 122.3853,229.9966 157.9253,240.8566 " fill="none" id="Table-ICollection`1" style="stroke:#181818;stroke-width:1.0;"/><polygon fill="none" points="127.4134,104.16,120.2734,103.1495,116.5945,109.3516,123.7345,110.3621,127.4134,104.16" style="stroke:#181818;stroke-width:1.0;"/><polygon fill="#181818" points="163.6634,242.61,156.2252,236.1545,158.8816,241.1488,153.8873,243.8053,163.6634,242.61" style="stroke:#181818;stroke-width:1.0;"/><text fill="#000000" font-family="sans-serif" font-size="13" lengthAdjust="spacing" textLength="150" x="6" y="254.0029">PrimaryKeys&lt;Column&gt;</text></g><!--link Table to ICollection`1--><g id="link_Table_ICollection`1"><path codeLine="9" d="M116.5945,109.3516 C95.9845,119.2416 91.2934,121.5 91.2934,121.5 C91.2934,121.5 51.2934,144.83 51.2934,144.83 C51.2934,144.83 51.2934,197.17 51.2934,197.17 C51.2934,197.17 91.2934,220.5 91.2934,220.5 C91.2934,220.5 122.3853,229.9966 157.9253,240.8566 " fill="none" id="Table-ICollection`1-1" style="stroke:#181818;stroke-width:1.0;"/><polygon fill="none" points="127.4134,104.16,120.2734,103.1495,116.5945,109.3516,123.7345,110.3621,127.4134,104.16" style="stroke:#181818;stroke-width:1.0;"/><polygon fill="#181818" points="163.6634,242.61,156.2252,236.1545,158.8816,241.1488,153.8873,243.8053,163.6634,242.61" style="stroke:#181818;stroke-width:1.0;"/><text fill="#000000" font-family="sans-serif" font-size="13" lengthAdjust="spacing" textLength="127" x="28.825" y="238.0119">Columns&lt;Column&gt;</text></g><!--link DbModel to ICollection`1--><g id="link_DbModel_ICollection`1"><path codeLine="6" d="M228.7934,215.82 C228.7934,222.57 228.7934,232.17 228.7934,232.17 C228.7934,232.17 228.7934,228.7 228.7934,232.31 " fill="none" id="DbModel-ICollection`1" style="stroke:#181818;stroke-width:1.0;"/><polygon fill="none" points="228.7934,203.82,224.7934,209.82,228.7934,215.82,232.7934,209.82,228.7934,203.82" style="stroke:#181818;stroke-width:1.0;"/><polygon fill="#181818" points="228.7934,238.31,232.7934,229.31,228.7934,233.31,224.7934,229.31,228.7934,238.31" style="stroke:#181818;stroke-width:1.0;"/><text fill="#000000" font-family="sans-serif" font-size="13" lengthAdjust="spacing" textLength="97" x="241.2215" y="227.2733">Tables&lt;Table&gt;</text></g><!--reverse link DataTypeBase to UnknownDataType--><g id="link_DataTypeBase_UnknownDataType"><path codeLine="40" d="M340.3666,413.6997 C364.0166,403.4797 366.2934,402.5 366.2934,402.5 C366.2934,402.5 426.2934,333.5 426.2934,333.5 C426.2934,333.5 446.8734,326.05 474.6234,316.02 " fill="none" id="DataTypeBase-backto-UnknownDataType" style="stroke:#181818;stroke-width:1.0;"/><polygon fill="none" points="323.8434,420.84,342.7467,419.2075,337.9865,408.192,323.8434,420.84" style="stroke:#181818;stroke-width:1.0;"/></g><!--reverse link DataTypeBase to SimpleType--><g id="link_DataTypeBase_SimpleType"><path codeLine="41" d="M384.2109,435.3658 C409.7909,431.0358 419.1034,429.46 445.6334,424.97 " fill="none" id="DataTypeBase-backto-SimpleType" style="stroke:#181818;stroke-width:1.0;"/><polygon fill="none" points="366.4634,438.37,385.2123,441.2817,383.2095,429.45,366.4634,438.37" style="stroke:#181818;stroke-width:1.0;"/></g><!--link SimpleType to Types--><g id="link_SimpleType_Types"><path codeLine="42" d="M795.8534,408.18 C824.3034,407.94 845.9741,407.4892 868.9841,406.1092 " fill="none" id="SimpleType-to-Types" style="stroke:#181818;stroke-width:1.0;"/><polygon fill="#181818" points="874.9734,405.75,865.75,402.296,869.9823,406.0493,866.229,410.2816,874.9734,405.75" style="stroke:#181818;stroke-width:1.0;"/><text fill="#000000" font-family="sans-serif" font-size="13" lengthAdjust="spacing" textLength="72" x="795.2109" y="419.53">simpleType</text></g><!--reverse link SimpleType to Types--><g id="link_SimpleType_Types"><path codeLine="45" d="M811.8527,382.2206 C840.3027,382.4706 851.9634,383.18 874.9734,384.64 " fill="none" id="SimpleType-backto-Types" style="stroke:#181818;stroke-width:1.0;"/><ellipse cx="803.8531" cy="382.1503" fill="#FFFFFF" rx="8" ry="8" style="stroke:#181818;stroke-width:1.0;"/><line style="stroke:#181818;stroke-width:1.0;" x1="811.8527" x2="795.8534" y1="382.2206" y2="382.08"/><line style="stroke:#181818;stroke-width:1.0;" x1="803.7828" x2="803.9233" y1="390.15" y2="374.1506"/></g><!--reverse link DataTypeBase to NVarChar--><g id="link_DataTypeBase_NVarChar"><path codeLine="43" d="M384.2113,487.6318 C417.2613,493.2218 435.0134,496.23 468.6834,501.93 " fill="none" id="DataTypeBase-backto-NVarChar" style="stroke:#181818;stroke-width:1.0;"/><polygon fill="none" points="366.4634,484.63,383.2107,493.5478,385.2119,481.7159,366.4634,484.63" style="stroke:#181818;stroke-width:1.0;"/></g><!--reverse link DataTypeBase to NVarCharMax--><g id="link_DataTypeBase_NVarCharMax"><path codeLine="44" d="M303.2846,512.3633 C361.1846,552.4333 426.2934,597.5 426.2934,597.5 C426.2934,597.5 449.9434,605.08 480.7034,614.94 " fill="none" id="DataTypeBase-backto-NVarCharMax" style="stroke:#181818;stroke-width:1.0;"/><polygon fill="none" points="288.4834,502.12,299.8701,517.297,306.699,507.4295,288.4834,502.12" style="stroke:#181818;stroke-width:1.0;"/></g><!--SRC=[jP4n3eCm34LtJf4U02nnXR9qwCO5tE22XPr4YLE9spTKlGAJ_vU-tXjSTWu9CweJ3cH78fUY76VfXDxcBBhCwsPkuKpUE8Qkkt7mKXTo0snH2HJ6SUmBVJpllRBVa0HAzl2CInKgCA7X8nYj6Ky2J56Hstcr0KcJhN2FKZKCgQfSmf_n9NGT_fyl5BJ9tDxpCtm1]--></g></svg>