<?xml version="1.0" encoding="us-ascii" standalone="no"?><svg xmlns="http://www.w3.org/2000/svg" xmlns:xlink="http://www.w3.org/1999/xlink" contentStyleType="text/css" height="819px" preserveAspectRatio="none" style="width:1234px;height:819px;background:#FFFFFF;" version="1.1" viewBox="0 0 1234 819" width="1234px" zoomAndPan="magnify"><defs/><g><!--class EntityMapping--><g id="elem_EntityMapping"><rect codeLine="1" fill="#F1F1F1" height="113.1875" id="EntityMapping" rx="2.5" ry="2.5" style="stroke:#181818;stroke-width:0.5;" width="403" x="325" y="526"/><ellipse cx="473.75" cy="542" fill="#ADD1B2" rx="11" ry="11" style="stroke:#181818;stroke-width:1.0;"/><path d="M476.7188,547.6406 Q476.1406,547.9375 475.5,548.0781 Q474.8594,548.2344 474.1563,548.2344 Q471.6563,548.2344 470.3281,546.5938 Q469.0156,544.9375 469.0156,541.8125 Q469.0156,538.6875 470.3281,537.0313 Q471.6563,535.375 474.1563,535.375 Q474.8594,535.375 475.5,535.5313 Q476.1563,535.6875 476.7188,535.9844 L476.7188,538.7031 Q476.0938,538.125 475.5,537.8594 Q474.9063,537.5781 474.2813,537.5781 Q472.9375,537.5781 472.25,538.6563 Q471.5625,539.7188 471.5625,541.8125 Q471.5625,543.9063 472.25,544.9844 Q472.9375,546.0469 474.2813,546.0469 Q474.9063,546.0469 475.5,545.7813 Q476.0938,545.5 476.7188,544.9219 L476.7188,547.6406 Z " fill="#000000"/><text fill="#000000" font-family="sans-serif" font-size="14" lengthAdjust="spacing" textLength="97" x="494.25" y="546.8467">EntityMapping</text><line style="stroke:#181818;stroke-width:0.5;" x1="326" x2="727" y1="558" y2="558"/><ellipse cx="336" cy="571.6484" fill="none" rx="3" ry="3" style="stroke:#038048;stroke-width:1.0;"/><text fill="#000000" font-family="sans-serif" font-size="14" lengthAdjust="spacing" textLength="137" x="345" y="574.9951">Name : string &#171;get&#187;</text><ellipse cx="336" cy="587.9453" fill="none" rx="3" ry="3" style="stroke:#038048;stroke-width:1.0;"/><text fill="#000000" font-family="sans-serif" font-size="14" lengthAdjust="spacing" textLength="160" x="345" y="591.292">Schema : string? &#171;get&#187;</text><ellipse cx="336" cy="604.2422" fill="none" rx="3" ry="3" style="stroke:#038048;stroke-width:1.0;"/><text fill="#000000" font-family="sans-serif" font-size="14" lengthAdjust="spacing" textLength="183" x="345" y="607.5889">Description : string? &#171;get&#187;</text><ellipse cx="336" cy="620.5391" fill="none" rx="3" ry="3" style="stroke:#038048;stroke-width:1.0;"/><text fill="#000000" font-family="sans-serif" font-size="14" lengthAdjust="spacing" textLength="377" x="345" y="623.8857">ColumnMappings : Dictionary&lt;string,SourceColumn?&gt;</text><line style="stroke:#181818;stroke-width:0.5;" x1="326" x2="727" y1="631.1875" y2="631.1875"/></g><!--class ISourceEntity--><g id="elem_ISourceEntity"><rect codeLine="1" fill="#F1F1F1" height="48" id="ISourceEntity" rx="2.5" ry="2.5" style="stroke:#181818;stroke-width:0.5;" width="124" x="763.5" y="558.5"/><ellipse cx="778.5" cy="574.5" fill="#B4A7E5" rx="11" ry="11" style="stroke:#181818;stroke-width:1.0;"/><path d="M774.4219,570.2656 L774.4219,568.1094 L781.8125,568.1094 L781.8125,570.2656 L779.3438,570.2656 L779.3438,578.3438 L781.8125,578.3438 L781.8125,580.5 L774.4219,580.5 L774.4219,578.3438 L776.8906,578.3438 L776.8906,570.2656 L774.4219,570.2656 Z " fill="#000000"/><text fill="#000000" font-family="sans-serif" font-size="14" font-style="italic" lengthAdjust="spacing" textLength="92" x="792.5" y="579.3467">ISourceEntity</text><line style="stroke:#181818;stroke-width:0.5;" x1="764.5" x2="886.5" y1="590.5" y2="590.5"/><line style="stroke:#181818;stroke-width:0.5;" x1="764.5" x2="886.5" y1="598.5" y2="598.5"/></g><!--class SourceTable--><g id="elem_SourceTable"><rect codeLine="1" fill="#F1F1F1" height="113.1875" id="SourceTable" rx="2.5" ry="2.5" style="stroke:#181818;stroke-width:0.5;" width="379" x="427" y="699"/><ellipse cx="568.75" cy="715" fill="#ADD1B2" rx="11" ry="11" style="stroke:#181818;stroke-width:1.0;"/><path d="M571.7188,720.6406 Q571.1406,720.9375 570.5,721.0781 Q569.8594,721.2344 569.1563,721.2344 Q566.6563,721.2344 565.3281,719.5938 Q564.0156,717.9375 564.0156,714.8125 Q564.0156,711.6875 565.3281,710.0313 Q566.6563,708.375 569.1563,708.375 Q569.8594,708.375 570.5,708.5313 Q571.1563,708.6875 571.7188,708.9844 L571.7188,711.7031 Q571.0938,711.125 570.5,710.8594 Q569.9063,710.5781 569.2813,710.5781 Q567.9375,710.5781 567.25,711.6563 Q566.5625,712.7188 566.5625,714.8125 Q566.5625,716.9063 567.25,717.9844 Q567.9375,719.0469 569.2813,719.0469 Q569.9063,719.0469 570.5,718.7813 Q571.0938,718.5 571.7188,717.9219 L571.7188,720.6406 Z " fill="#000000"/><text fill="#000000" font-family="sans-serif" font-size="14" lengthAdjust="spacing" textLength="87" x="589.25" y="719.8467">SourceTable</text><line style="stroke:#181818;stroke-width:0.5;" x1="428" x2="805" y1="731" y2="731"/><ellipse cx="438" cy="744.6484" fill="none" rx="3" ry="3" style="stroke:#038048;stroke-width:1.0;"/><text fill="#000000" font-family="sans-serif" font-size="14" lengthAdjust="spacing" textLength="353" x="447" y="747.9951">&#171;const&#187; TypeDiscriminator : string = "sourceTable"</text><ellipse cx="438" cy="760.9453" fill="none" rx="3" ry="3" style="stroke:#038048;stroke-width:1.0;"/><text fill="#000000" font-family="sans-serif" font-size="14" lengthAdjust="spacing" textLength="327" x="447" y="764.292">selectedColumns:SourceColumn[] &#171;get&#187; &#171;set&#187;</text><ellipse cx="438" cy="777.2422" fill="none" rx="3" ry="3" style="stroke:#038048;stroke-width:1.0;"/><text fill="#000000" font-family="sans-serif" font-size="14" lengthAdjust="spacing" textLength="181" x="447" y="780.5889">Name : string &#171;get&#187; &#171;set&#187;</text><ellipse cx="438" cy="793.5391" fill="none" rx="3" ry="3" style="stroke:#038048;stroke-width:1.0;"/><text fill="#000000" font-family="sans-serif" font-size="14" lengthAdjust="spacing" textLength="204" x="447" y="796.8857">Schema : string? &#171;get&#187; &#171;set&#187;</text><line style="stroke:#181818;stroke-width:0.5;" x1="428" x2="805" y1="804.1875" y2="804.1875"/></g><!--class SourceColumn--><g id="elem_SourceColumn"><rect codeLine="1" fill="#F1F1F1" height="64.2969" id="SourceColumn" rx="2.5" ry="2.5" style="stroke:#181818;stroke-width:0.5;" width="207" x="504" y="377.5"/><ellipse cx="552.25" cy="393.5" fill="#ADD1B2" rx="11" ry="11" style="stroke:#181818;stroke-width:1.0;"/><path d="M555.2188,399.1406 Q554.6406,399.4375 554,399.5781 Q553.3594,399.7344 552.6563,399.7344 Q550.1563,399.7344 548.8281,398.0938 Q547.5156,396.4375 547.5156,393.3125 Q547.5156,390.1875 548.8281,388.5313 Q550.1563,386.875 552.6563,386.875 Q553.3594,386.875 554,387.0313 Q554.6563,387.1875 555.2188,387.4844 L555.2188,390.2031 Q554.5938,389.625 554,389.3594 Q553.4063,389.0781 552.7813,389.0781 Q551.4375,389.0781 550.75,390.1563 Q550.0625,391.2188 550.0625,393.3125 Q550.0625,395.4063 550.75,396.4844 Q551.4375,397.5469 552.7813,397.5469 Q553.4063,397.5469 554,397.2813 Q554.5938,397 555.2188,396.4219 L555.2188,399.1406 Z " fill="#000000"/><text fill="#000000" font-family="sans-serif" font-size="14" lengthAdjust="spacing" textLength="102" x="572.75" y="398.3467">SourceColumn</text><line style="stroke:#181818;stroke-width:0.5;" x1="505" x2="710" y1="409.5" y2="409.5"/><ellipse cx="515" cy="423.1484" fill="none" rx="3" ry="3" style="stroke:#038048;stroke-width:1.0;"/><text fill="#000000" font-family="sans-serif" font-size="14" lengthAdjust="spacing" textLength="181" x="524" y="426.4951">Name : string &#171;get&#187; &#171;set&#187;</text><line style="stroke:#181818;stroke-width:0.5;" x1="505" x2="710" y1="433.7969" y2="433.7969"/></g><!--class DataTypeBase--><g id="elem_DataTypeBase"><rect fill="#F1F1F1" height="48" id="DataTypeBase" rx="2.5" ry="2.5" style="stroke:#181818;stroke-width:0.5;" width="133" x="157" y="558.5"/><ellipse cx="172" cy="574.5" fill="#ADD1B2" rx="11" ry="11" style="stroke:#181818;stroke-width:1.0;"/><path d="M174.9688,580.1406 Q174.3906,580.4375 173.75,580.5781 Q173.1094,580.7344 172.4063,580.7344 Q169.9063,580.7344 168.5781,579.0938 Q167.2656,577.4375 167.2656,574.3125 Q167.2656,571.1875 168.5781,569.5313 Q169.9063,567.875 172.4063,567.875 Q173.1094,567.875 173.75,568.0313 Q174.4063,568.1875 174.9688,568.4844 L174.9688,571.2031 Q174.3438,570.625 173.75,570.3594 Q173.1563,570.0781 172.5313,570.0781 Q171.1875,570.0781 170.5,571.1563 Q169.8125,572.2188 169.8125,574.3125 Q169.8125,576.4063 170.5,577.4844 Q171.1875,578.5469 172.5313,578.5469 Q173.1563,578.5469 173.75,578.2813 Q174.3438,578 174.9688,577.4219 L174.9688,580.1406 Z " fill="#000000"/><text fill="#000000" font-family="sans-serif" font-size="14" lengthAdjust="spacing" textLength="101" x="186" y="579.3467">DataTypeBase</text><line style="stroke:#181818;stroke-width:0.5;" x1="158" x2="289" y1="590.5" y2="590.5"/><line style="stroke:#181818;stroke-width:0.5;" x1="158" x2="289" y1="598.5" y2="598.5"/></g><!--class CustomQuery--><g id="elem_CustomQuery"><rect codeLine="1" fill="#F1F1F1" height="113.1875" id="CustomQuery" rx="2.5" ry="2.5" style="stroke:#181818;stroke-width:0.5;" width="386" x="841.5" y="699"/><ellipse cx="982.75" cy="715" fill="#ADD1B2" rx="11" ry="11" style="stroke:#181818;stroke-width:1.0;"/><path d="M985.7188,720.6406 Q985.1406,720.9375 984.5,721.0781 Q983.8594,721.2344 983.1563,721.2344 Q980.6563,721.2344 979.3281,719.5938 Q978.0156,717.9375 978.0156,714.8125 Q978.0156,711.6875 979.3281,710.0313 Q980.6563,708.375 983.1563,708.375 Q983.8594,708.375 984.5,708.5313 Q985.1563,708.6875 985.7188,708.9844 L985.7188,711.7031 Q985.0938,711.125 984.5,710.8594 Q983.9063,710.5781 983.2813,710.5781 Q981.9375,710.5781 981.25,711.6563 Q980.5625,712.7188 980.5625,714.8125 Q980.5625,716.9063 981.25,717.9844 Q981.9375,719.0469 983.2813,719.0469 Q983.9063,719.0469 984.5,718.7813 Q985.0938,718.5 985.7188,717.9219 L985.7188,720.6406 Z " fill="#000000"/><text fill="#000000" font-family="sans-serif" font-size="14" lengthAdjust="spacing" textLength="95" x="1003.25" y="719.8467">CustomQuery</text><line style="stroke:#181818;stroke-width:0.5;" x1="842.5" x2="1226.5" y1="731" y2="731"/><ellipse cx="852.5" cy="744.6484" fill="none" rx="3" ry="3" style="stroke:#038048;stroke-width:1.0;"/><text fill="#000000" font-family="sans-serif" font-size="14" lengthAdjust="spacing" textLength="360" x="861.5" y="747.9951">&#171;const&#187; TypeDiscriminator : string = "customQuery"</text><ellipse cx="852.5" cy="760.9453" fill="none" rx="3" ry="3" style="stroke:#038048;stroke-width:1.0;"/><text fill="#000000" font-family="sans-serif" font-size="14" lengthAdjust="spacing" textLength="327" x="861.5" y="764.292">selectedColumns:SourceColumn[] &#171;get&#187; &#171;set&#187;</text><ellipse cx="852.5" cy="777.2422" fill="none" rx="3" ry="3" style="stroke:#038048;stroke-width:1.0;"/><text fill="#000000" font-family="sans-serif" font-size="14" lengthAdjust="spacing" textLength="181" x="861.5" y="780.5889">Name : string &#171;get&#187; &#171;set&#187;</text><ellipse cx="852.5" cy="793.5391" fill="none" rx="3" ry="3" style="stroke:#038048;stroke-width:1.0;"/><text fill="#000000" font-family="sans-serif" font-size="14" lengthAdjust="spacing" textLength="182" x="861.5" y="796.8857">Query : string &#171;get&#187; &#171;set&#187;</text><line style="stroke:#181818;stroke-width:0.5;" x1="842.5" x2="1226.5" y1="804.1875" y2="804.1875"/></g><!--class Join--><g id="elem_Join"><rect codeLine="1" fill="#F1F1F1" height="113.1875" id="Join" rx="2.5" ry="2.5" style="stroke:#181818;stroke-width:0.5;" width="353" x="390" y="7"/><ellipse cx="550.25" cy="23" fill="#ADD1B2" rx="11" ry="11" style="stroke:#181818;stroke-width:1.0;"/><path d="M553.2188,28.6406 Q552.6406,28.9375 552,29.0781 Q551.3594,29.2344 550.6563,29.2344 Q548.1563,29.2344 546.8281,27.5938 Q545.5156,25.9375 545.5156,22.8125 Q545.5156,19.6875 546.8281,18.0313 Q548.1563,16.375 550.6563,16.375 Q551.3594,16.375 552,16.5313 Q552.6563,16.6875 553.2188,16.9844 L553.2188,19.7031 Q552.5938,19.125 552,18.8594 Q551.4063,18.5781 550.7813,18.5781 Q549.4375,18.5781 548.75,19.6563 Q548.0625,20.7188 548.0625,22.8125 Q548.0625,24.9063 548.75,25.9844 Q549.4375,27.0469 550.7813,27.0469 Q551.4063,27.0469 552,26.7813 Q552.5938,26.5 553.2188,25.9219 L553.2188,28.6406 Z " fill="#000000"/><text fill="#000000" font-family="sans-serif" font-size="14" lengthAdjust="spacing" textLength="24" x="570.75" y="27.8467">Join</text><line style="stroke:#181818;stroke-width:0.5;" x1="391" x2="742" y1="39" y2="39"/><ellipse cx="401" cy="52.6484" fill="none" rx="3" ry="3" style="stroke:#038048;stroke-width:1.0;"/><text fill="#000000" font-family="sans-serif" font-size="14" lengthAdjust="spacing" textLength="291" x="410" y="55.9951">&#171;const&#187; TypeDiscriminator : string = "join"</text><ellipse cx="401" cy="68.9453" fill="none" rx="3" ry="3" style="stroke:#038048;stroke-width:1.0;"/><text fill="#000000" font-family="sans-serif" font-size="14" lengthAdjust="spacing" textLength="181" x="410" y="72.292">Name : string &#171;get&#187; &#171;set&#187;</text><ellipse cx="401" cy="85.2422" fill="none" rx="3" ry="3" style="stroke:#038048;stroke-width:1.0;"/><text fill="#000000" font-family="sans-serif" font-size="14" lengthAdjust="spacing" textLength="327" x="410" y="88.5889">selectedColumns:SourceColumn[] &#171;get&#187; &#171;set&#187;</text><ellipse cx="401" cy="101.5391" fill="none" rx="3" ry="3" style="stroke:#038048;stroke-width:1.0;"/><text fill="#000000" font-family="sans-serif" font-size="14" lengthAdjust="spacing" textLength="186" x="410" y="104.8857">joinType:Type &#171;get&#187; &#171;set&#187;</text><line style="stroke:#181818;stroke-width:0.5;" x1="391" x2="742" y1="112.1875" y2="112.1875"/></g><!--class Type--><g id="elem_Type"><rect codeLine="7" fill="#F1F1F1" height="113.1875" id="Type" rx="2.5" ry="2.5" style="stroke:#181818;stroke-width:0.5;" width="66" x="302.5" y="180"/><ellipse cx="317.5" cy="196" fill="#EB937F" rx="11" ry="11" style="stroke:#181818;stroke-width:1.0;"/><path d="M321.6094,202 L313.8906,202 L313.8906,189.6094 L321.6094,189.6094 L321.6094,191.7656 L316.3438,191.7656 L316.3438,194.4375 L321.1094,194.4375 L321.1094,196.5938 L316.3438,196.5938 L316.3438,199.8438 L321.6094,199.8438 L321.6094,202 Z " fill="#000000"/><text fill="#000000" font-family="sans-serif" font-size="14" lengthAdjust="spacing" textLength="34" x="331.5" y="200.8467">Type</text><line style="stroke:#181818;stroke-width:0.5;" x1="303.5" x2="367.5" y1="212" y2="212"/><text fill="#000000" font-family="sans-serif" font-size="14" lengthAdjust="spacing" textLength="25" x="308.5" y="228.9951">left,</text><text fill="#000000" font-family="sans-serif" font-size="14" lengthAdjust="spacing" textLength="35" x="308.5" y="245.292">right,</text><text fill="#000000" font-family="sans-serif" font-size="14" lengthAdjust="spacing" textLength="39" x="308.5" y="261.5889">inner,</text><text fill="#000000" font-family="sans-serif" font-size="14" lengthAdjust="spacing" textLength="23" x="308.5" y="277.8857">full,</text><line style="stroke:#181818;stroke-width:0.5;" x1="303.5" x2="367.5" y1="285.1875" y2="285.1875"/></g><!--class JoinCondition--><g id="elem_JoinCondition"><rect codeLine="1" fill="#F1F1F1" height="113.1875" id="JoinCondition" rx="2.5" ry="2.5" style="stroke:#181818;stroke-width:0.5;" width="327" x="403" y="180"/><ellipse cx="517.25" cy="196" fill="#ADD1B2" rx="11" ry="11" style="stroke:#181818;stroke-width:1.0;"/><path d="M520.2188,201.6406 Q519.6406,201.9375 519,202.0781 Q518.3594,202.2344 517.6563,202.2344 Q515.1563,202.2344 513.8281,200.5938 Q512.5156,198.9375 512.5156,195.8125 Q512.5156,192.6875 513.8281,191.0313 Q515.1563,189.375 517.6563,189.375 Q518.3594,189.375 519,189.5313 Q519.6563,189.6875 520.2188,189.9844 L520.2188,192.7031 Q519.5938,192.125 519,191.8594 Q518.4063,191.5781 517.7813,191.5781 Q516.4375,191.5781 515.75,192.6563 Q515.0625,193.7188 515.0625,195.8125 Q515.0625,197.9063 515.75,198.9844 Q516.4375,200.0469 517.7813,200.0469 Q518.4063,200.0469 519,199.7813 Q519.5938,199.5 520.2188,198.9219 L520.2188,201.6406 Z " fill="#000000"/><text fill="#000000" font-family="sans-serif" font-size="14" lengthAdjust="spacing" textLength="90" x="537.75" y="200.8467">JoinCondition</text><line style="stroke:#181818;stroke-width:0.5;" x1="404" x2="729" y1="212" y2="212"/><ellipse cx="414" cy="225.6484" fill="none" rx="3" ry="3" style="stroke:#038048;stroke-width:1.0;"/><text fill="#000000" font-family="sans-serif" font-size="14" lengthAdjust="spacing" textLength="206" x="423" y="228.9951">relation:Operator &#171;get&#187; &#171;set&#187;</text><ellipse cx="414" cy="241.9453" fill="none" rx="3" ry="3" style="stroke:#038048;stroke-width:1.0;"/><text fill="#000000" font-family="sans-serif" font-size="14" lengthAdjust="spacing" textLength="270" x="423" y="245.292">leftColumn:SourceColumn &#171;get&#187; &#171;set&#187;</text><ellipse cx="414" cy="258.2422" fill="none" rx="3" ry="3" style="stroke:#038048;stroke-width:1.0;"/><text fill="#000000" font-family="sans-serif" font-size="14" lengthAdjust="spacing" textLength="280" x="423" y="261.5889">rightColumn:SourceColumn &#171;get&#187; &#171;set&#187;</text><ellipse cx="414" cy="274.5391" fill="none" rx="3" ry="3" style="stroke:#038048;stroke-width:1.0;"/><text fill="#000000" font-family="sans-serif" font-size="14" lengthAdjust="spacing" textLength="301" x="423" y="277.8857">linkedCondition:ConditionLink? &#171;get&#187; &#171;set&#187;</text><line style="stroke:#181818;stroke-width:0.5;" x1="404" x2="729" y1="285.1875" y2="285.1875"/></g><!--class ConditionLink--><g id="elem_ConditionLink"><rect codeLine="1" fill="#F1F1F1" height="80.5938" id="ConditionLink" rx="2.5" ry="2.5" style="stroke:#181818;stroke-width:0.5;" width="274" x="14.5" y="369"/><ellipse cx="100.75" cy="385" fill="#ADD1B2" rx="11" ry="11" style="stroke:#181818;stroke-width:1.0;"/><path d="M103.7188,390.6406 Q103.1406,390.9375 102.5,391.0781 Q101.8594,391.2344 101.1563,391.2344 Q98.6563,391.2344 97.3281,389.5938 Q96.0156,387.9375 96.0156,384.8125 Q96.0156,381.6875 97.3281,380.0313 Q98.6563,378.375 101.1563,378.375 Q101.8594,378.375 102.5,378.5313 Q103.1563,378.6875 103.7188,378.9844 L103.7188,381.7031 Q103.0938,381.125 102.5,380.8594 Q101.9063,380.5781 101.2813,380.5781 Q99.9375,380.5781 99.25,381.6563 Q98.5625,382.7188 98.5625,384.8125 Q98.5625,386.9063 99.25,387.9844 Q99.9375,389.0469 101.2813,389.0469 Q101.9063,389.0469 102.5,388.7813 Q103.0938,388.5 103.7188,387.9219 L103.7188,390.6406 Z " fill="#000000"/><text fill="#000000" font-family="sans-serif" font-size="14" lengthAdjust="spacing" textLength="93" x="121.25" y="389.8467">ConditionLink</text><line style="stroke:#181818;stroke-width:0.5;" x1="15.5" x2="287.5" y1="401" y2="401"/><ellipse cx="25.5" cy="414.6484" fill="none" rx="3" ry="3" style="stroke:#038048;stroke-width:1.0;"/><text fill="#000000" font-family="sans-serif" font-size="14" lengthAdjust="spacing" textLength="228" x="34.5" y="417.9951">relation:LinkRelation &#171;get&#187; &#171;set&#187;</text><ellipse cx="25.5" cy="430.9453" fill="none" rx="3" ry="3" style="stroke:#038048;stroke-width:1.0;"/><text fill="#000000" font-family="sans-serif" font-size="14" lengthAdjust="spacing" textLength="248" x="34.5" y="434.292">condition:JoinCondition &#171;get&#187; &#171;set&#187;</text><line style="stroke:#181818;stroke-width:0.5;" x1="15.5" x2="287.5" y1="441.5938" y2="441.5938"/></g><!--class LinkRelation--><g id="elem_LinkRelation"><rect codeLine="5" fill="#F1F1F1" height="80.5938" id="LinkRelation" rx="2.5" ry="2.5" style="stroke:#181818;stroke-width:0.5;" width="115" x="7" y="542"/><ellipse cx="22" cy="558" fill="#EB937F" rx="11" ry="11" style="stroke:#181818;stroke-width:1.0;"/><path d="M26.1094,564 L18.3906,564 L18.3906,551.6094 L26.1094,551.6094 L26.1094,553.7656 L20.8438,553.7656 L20.8438,556.4375 L25.6094,556.4375 L25.6094,558.5938 L20.8438,558.5938 L20.8438,561.8438 L26.1094,561.8438 L26.1094,564 Z " fill="#000000"/><text fill="#000000" font-family="sans-serif" font-size="14" lengthAdjust="spacing" textLength="83" x="36" y="562.8467">LinkRelation</text><line style="stroke:#181818;stroke-width:0.5;" x1="8" x2="121" y1="574" y2="574"/><text fill="#000000" font-family="sans-serif" font-size="14" lengthAdjust="spacing" textLength="31" x="13" y="590.9951">And,</text><text fill="#000000" font-family="sans-serif" font-size="14" lengthAdjust="spacing" textLength="20" x="13" y="607.292">Or,</text><line style="stroke:#181818;stroke-width:0.5;" x1="8" x2="121" y1="614.5938" y2="614.5938"/></g><!--class IVisitable--><g id="elem_IVisitable"><rect fill="#F1F1F1" height="48" id="IVisitable" rx="2.5" ry="2.5" style="stroke:#181818;stroke-width:0.5;" width="92" x="105.5" y="212.5"/><ellipse cx="120.5" cy="228.5" fill="#ADD1B2" rx="11" ry="11" style="stroke:#181818;stroke-width:1.0;"/><path d="M123.4688,234.1406 Q122.8906,234.4375 122.25,234.5781 Q121.6094,234.7344 120.9063,234.7344 Q118.4063,234.7344 117.0781,233.0938 Q115.7656,231.4375 115.7656,228.3125 Q115.7656,225.1875 117.0781,223.5313 Q118.4063,221.875 120.9063,221.875 Q121.6094,221.875 122.25,222.0313 Q122.9063,222.1875 123.4688,222.4844 L123.4688,225.2031 Q122.8438,224.625 122.25,224.3594 Q121.6563,224.0781 121.0313,224.0781 Q119.6875,224.0781 119,225.1563 Q118.3125,226.2188 118.3125,228.3125 Q118.3125,230.4063 119,231.4844 Q119.6875,232.5469 121.0313,232.5469 Q121.6563,232.5469 122.25,232.2813 Q122.8438,232 123.4688,231.4219 L123.4688,234.1406 Z " fill="#000000"/><text fill="#000000" font-family="sans-serif" font-size="14" lengthAdjust="spacing" textLength="60" x="134.5" y="233.3467">IVisitable</text><line style="stroke:#181818;stroke-width:0.5;" x1="106.5" x2="196.5" y1="244.5" y2="244.5"/><line style="stroke:#181818;stroke-width:0.5;" x1="106.5" x2="196.5" y1="252.5" y2="252.5"/></g><!--class Operator--><g id="elem_Operator"><rect codeLine="7" fill="#F1F1F1" height="113.1875" id="Operator" rx="2.5" ry="2.5" style="stroke:#181818;stroke-width:0.5;" width="101" x="368" y="353"/><ellipse cx="386.6" cy="369" fill="#EB937F" rx="11" ry="11" style="stroke:#181818;stroke-width:1.0;"/><path d="M390.7094,375 L382.9906,375 L382.9906,362.6094 L390.7094,362.6094 L390.7094,364.7656 L385.4438,364.7656 L385.4438,367.4375 L390.2094,367.4375 L390.2094,369.5938 L385.4438,369.5938 L385.4438,372.8438 L390.7094,372.8438 L390.7094,375 Z " fill="#000000"/><text fill="#000000" font-family="sans-serif" font-size="14" lengthAdjust="spacing" textLength="61" x="401.4" y="373.8467">Operator</text><line style="stroke:#181818;stroke-width:0.5;" x1="369" x2="468" y1="385" y2="385"/><text fill="#000000" font-family="sans-serif" font-size="14" lengthAdjust="spacing" textLength="50" x="374" y="401.9951">equals,</text><text fill="#000000" font-family="sans-serif" font-size="14" lengthAdjust="spacing" textLength="73" x="374" y="418.292">notEquals,</text><text fill="#000000" font-family="sans-serif" font-size="14" lengthAdjust="spacing" textLength="89" x="374" y="434.5889">greaterThan,</text><text fill="#000000" font-family="sans-serif" font-size="14" lengthAdjust="spacing" textLength="67" x="374" y="450.8857">lessThan,</text><line style="stroke:#181818;stroke-width:0.5;" x1="369" x2="468" y1="458.1875" y2="458.1875"/></g><!--link EntityMapping to ISourceEntity--><g id="link_EntityMapping_ISourceEntity"><path codeLine="8" d="M740.3,582.5 C745.78,582.5 741.76,582.5 757.47,582.5 " fill="none" id="EntityMapping-ISourceEntity" style="stroke:#181818;stroke-width:1.0;"/><polygon fill="none" points="728.3,582.5,734.3,586.5,740.3,582.5,734.3,578.5,728.3,582.5" style="stroke:#181818;stroke-width:1.0;"/><polygon fill="#181818" points="763.47,582.5,754.47,578.5,758.47,582.5,754.47,586.5,763.47,582.5" style="stroke:#181818;stroke-width:1.0;"/><text fill="#000000" font-family="sans-serif" font-size="13" lengthAdjust="spacing" textLength="81" x="674.3537" y="565.9596">SourceEntity</text></g><!--reverse link ISourceEntity to SourceTable--><g id="link_ISourceEntity_SourceTable"><path codeLine="7" d="M783.3801,617.9599 C754.6401,641.4799 722.88,667.46 684.62,698.76 " fill="none" id="ISourceEntity-backto-SourceTable" style="stroke:#181818;stroke-width:1.0;"/><polygon fill="none" points="797.31,606.56,779.5801,613.3166,787.18,622.6032,797.31,606.56" style="stroke:#181818;stroke-width:1.0;"/></g><!--link SourceColumn to ISourceEntity--><g id="link_SourceColumn_ISourceEntity"><path codeLine="4" d="M647.23,441.67 C690.21,475.38 753.0193,524.6467 791.4393,554.7867 " fill="none" id="SourceColumn-to-ISourceEntity" style="stroke:#181818;stroke-width:1.0;"/><polygon fill="#181818" points="796.16,558.49,791.5478,549.7878,792.2261,555.4039,786.61,556.0821,796.16,558.49" style="stroke:#181818;stroke-width:1.0;"/><text fill="#000000" font-family="sans-serif" font-size="13" lengthAdjust="spacing" textLength="40" x="743.5166" y="547.4995">Owner</text></g><!--link SourceColumn to DataTypeBase--><g id="link_SourceColumn_DataTypeBase"><path codeLine="5" d="M539.57,441.66 C511.99,454.31 486.5,466 486.5,466 C486.5,466 307.5,526 307.5,526 C307.5,526 286.667,539.7739 263.647,554.9739 " fill="none" id="SourceColumn-to-DataTypeBase" style="stroke:#181818;stroke-width:1.0;"/><polygon fill="#181818" points="258.64,558.28,268.3545,556.6589,262.8125,555.5249,263.9464,549.9829,258.64,558.28" style="stroke:#181818;stroke-width:1.0;"/><text fill="#000000" font-family="sans-serif" font-size="13" lengthAdjust="spacing" textLength="61" x="198.771" y="547.6313">DataType</text></g><!--reverse link ISourceEntity to CustomQuery--><g id="link_ISourceEntity_CustomQuery"><path codeLine="7" d="M867.6199,617.9599 C896.3599,641.4799 928.12,667.46 966.38,698.76 " fill="none" id="ISourceEntity-backto-CustomQuery" style="stroke:#181818;stroke-width:1.0;"/><polygon fill="none" points="853.69,606.56,863.82,622.6032,871.4199,613.3166,853.69,606.56" style="stroke:#181818;stroke-width:1.0;"/></g><!--link Join to ISourceEntity--><g id="link_Join_ISourceEntity"><path codeLine="13" d="M638.84,120.05 C682.92,149.64 730.5,180 730.5,180 C730.5,180 785.6286,467.4431 812.8086,552.7531 " fill="none" id="Join-to-ISourceEntity" style="stroke:#181818;stroke-width:1.0;"/><polygon fill="#181818" points="814.63,558.47,815.7091,548.6804,813.1122,553.706,808.0867,551.109,814.63,558.47" style="stroke:#181818;stroke-width:1.0;"/><text fill="#000000" font-family="sans-serif" font-size="13" lengthAdjust="spacing" textLength="105" x="825.2977" y="547.4743">LeftSourceEntity</text></g><!--link Join to ISourceEntity--><g id="link_Join_ISourceEntity"><path codeLine="14" d="M669.13,120.05 C717.92,149.64 765.5,180 765.5,180 C765.5,180 822.0745,467.1718 827.4245,552.4818 " fill="none" id="Join-to-ISourceEntity-1" style="stroke:#181818;stroke-width:1.0;"/><polygon fill="#181818" points="827.8,558.47,831.2289,549.2373,827.4871,553.4798,823.2445,549.738,827.8,558.47" style="stroke:#181818;stroke-width:1.0;"/><text fill="#000000" font-family="sans-serif" font-size="13" lengthAdjust="spacing" textLength="113" x="896.89" y="551.1922">RightSourceEntity</text></g><!--link Join to Type--><g id="link_Join_Type"><path codeLine="15" d="M464.74,120.05 C417.6,148.72 376.5246,174.8672 373.6946,176.6772 " fill="none" id="Join-to-Type" style="stroke:#181818;stroke-width:1.0;"/><polygon fill="#181818" points="368.64,179.91,378.3771,178.4305,372.8522,177.216,374.0667,171.6911,368.64,179.91" style="stroke:#181818;stroke-width:1.0;"/><text fill="#000000" font-family="sans-serif" font-size="13" lengthAdjust="spacing" textLength="52" x="317.5548" y="168.7619">JoinType</text></g><!--reverse link Join to Type--><g id="link_Join_Type"><path codeLine="17" d="M481.7487,128.9871 C437.8087,158.5771 403.5,180 403.5,180 C403.5,180 386.56,198.8 368.85,214.52 " fill="none" id="Join-backto-Type" style="stroke:#181818;stroke-width:1.0;"/><ellipse cx="488.3843" cy="124.5186" fill="#FFFFFF" rx="8" ry="8" style="stroke:#181818;stroke-width:1.0;"/><line style="stroke:#181818;stroke-width:1.0;" x1="481.7487" x2="495.02" y1="128.9871" y2="120.05"/><line style="stroke:#181818;stroke-width:1.0;" x1="483.9158" x2="492.8529" y1="117.8829" y2="131.1542"/></g><!--link Join to JoinCondition--><g id="link_Join_JoinCondition"><path codeLine="16" d="M566.5,120.02 C566.5,139.23 566.5,154.75 566.5,173.97 " fill="none" id="Join-to-JoinCondition" style="stroke:#181818;stroke-width:1.0;"/><polygon fill="#181818" points="566.5,179.97,570.5,170.97,566.5,174.97,562.5,170.97,566.5,179.97" style="stroke:#181818;stroke-width:1.0;"/><text fill="#000000" font-family="sans-serif" font-size="13" lengthAdjust="spacing" textLength="82" x="479.2469" y="168.8295">JoinCondition</text></g><!--reverse link IVisitable to ConditionLink--><g id="link_IVisitable_ConditionLink"><path codeLine="9" d="M151.5,278.56 C151.5,306.28 151.5,335.23 151.5,368.81 " fill="none" id="IVisitable-backto-ConditionLink" style="stroke:#181818;stroke-width:1.0;"/><polygon fill="none" points="151.5,260.56,145.5,278.56,157.5,278.56,151.5,260.56" style="stroke:#181818;stroke-width:1.0;"/></g><!--link ConditionLink to LinkRelation--><g id="link_ConditionLink_LinkRelation"><path codeLine="10" d="M120.36,450.16 C103.97,477.69 87.7235,508.6823 76.0935,536.2323 " fill="none" id="ConditionLink-to-LinkRelation" style="stroke:#181818;stroke-width:1.0;"/><polygon fill="#181818" points="73.76,541.76,80.9453,535.0242,75.7045,537.1536,73.5751,531.9129,73.76,541.76" style="stroke:#181818;stroke-width:1.0;"/><text fill="#000000" font-family="sans-serif" font-size="13" lengthAdjust="spacing" textLength="51" x="20.0703" y="530.8818">Relation</text></g><!--reverse link ConditionLink to LinkRelation--><g id="link_ConditionLink_LinkRelation"><path codeLine="12" d="M136.7665,464.9294 C125.2965,492.4594 112.87,514.21 96.33,541.76 " fill="none" id="ConditionLink-backto-LinkRelation" style="stroke:#181818;stroke-width:1.0;"/><ellipse cx="139.8433" cy="457.5447" fill="#FFFFFF" rx="8" ry="8" style="stroke:#181818;stroke-width:1.0;"/><line style="stroke:#181818;stroke-width:1.0;" x1="136.7665" x2="142.92" y1="464.9294" y2="450.16"/><line style="stroke:#181818;stroke-width:1.0;" x1="132.4586" x2="147.228" y1="454.468" y2="460.6214"/></g><!--link ConditionLink to JoinCondition--><g id="link_ConditionLink_JoinCondition"><path codeLine="11" d="M259.07,368.95 C315.87,346.4 380.1707,320.1196 438.9607,295.3496 " fill="none" id="ConditionLink-to-JoinCondition" style="stroke:#181818;stroke-width:1.0;"/><polygon fill="#181818" points="444.49,293.02,434.643,292.8283,439.8823,294.9614,437.7492,300.2006,444.49,293.02" style="stroke:#181818;stroke-width:1.0;"/><text fill="#000000" font-family="sans-serif" font-size="13" lengthAdjust="spacing" textLength="60" x="365.0137" y="313.286">Condition</text></g><!--link JoinCondition to ConditionLink--><g id="link_JoinCondition_ConditionLink"><path codeLine="16" d="M419.74,293.02 C358.38,317.79 294.8072,344.0419 242.0472,366.5919 " fill="none" id="JoinCondition-to-ConditionLink" style="stroke:#181818;stroke-width:1.0;"/><polygon fill="#181818" points="236.53,368.95,246.3778,369.091,241.1277,366.9849,243.2337,361.7347,236.53,368.95" style="stroke:#181818;stroke-width:1.0;"/><text fill="#000000" font-family="sans-serif" font-size="13" lengthAdjust="spacing" textLength="101" x="141.4648" y="357.8046">LinkedCondition</text></g><!--link JoinCondition to Operator--><g id="link_JoinCondition_Operator"><path codeLine="13" d="M506.42,293.02 C488.83,312.23 473.9899,329.0985 458.3299,348.3185 " fill="none" id="JoinCondition-to-Operator" style="stroke:#181818;stroke-width:1.0;"/><polygon fill="#181818" points="454.54,352.97,463.3259,348.5194,457.6983,349.0938,457.1239,343.4661,454.54,352.97" style="stroke:#181818;stroke-width:1.0;"/><text fill="#000000" font-family="sans-serif" font-size="13" lengthAdjust="spacing" textLength="51" x="404.8904" y="341.8295">Relation</text></g><!--reverse link JoinCondition to Operator--><g id="link_JoinCondition_Operator"><path codeLine="17" d="M521.0946,305.4411 C502.4846,328.3611 489.65,342.14 469.22,363.79 " fill="none" id="JoinCondition-backto-Operator" style="stroke:#181818;stroke-width:1.0;"/><ellipse cx="526.1373" cy="299.2306" fill="#FFFFFF" rx="8" ry="8" style="stroke:#181818;stroke-width:1.0;"/><line style="stroke:#181818;stroke-width:1.0;" x1="521.0946" x2="531.18" y1="305.4411" y2="293.02"/><line style="stroke:#181818;stroke-width:1.0;" x1="519.9267" x2="532.3479" y1="294.1879" y2="304.2733"/></g><!--link JoinCondition to SourceColumn--><g id="link_JoinCondition_SourceColumn"><path codeLine="14" d="M567.79,293.02 C573.07,320.91 579.5618,348.0125 587.8618,371.5125 " fill="none" id="JoinCondition-to-SourceColumn" style="stroke:#181818;stroke-width:1.0;"/><polygon fill="#181818" points="589.86,377.17,590.6344,367.3516,588.1949,372.4554,583.0911,370.0159,589.86,377.17" style="stroke:#181818;stroke-width:1.0;"/><text fill="#000000" font-family="sans-serif" font-size="13" lengthAdjust="spacing" textLength="73" x="506.2012" y="366.3792">LeftColumn</text></g><!--link JoinCondition to SourceColumn--><g id="link_JoinCondition_SourceColumn"><path codeLine="15" d="M592.55,293.02 C600.72,320.91 607.1876,347.7124 609.9976,371.2124 " fill="none" id="JoinCondition-to-SourceColumn-1" style="stroke:#181818;stroke-width:1.0;"/><polygon fill="#181818" points="610.71,377.17,613.6131,367.7587,610.1164,372.2054,605.6697,368.7086,610.71,377.17" style="stroke:#181818;stroke-width:1.0;"/><text fill="#000000" font-family="sans-serif" font-size="13" lengthAdjust="spacing" textLength="81" x="619.3154" y="366.3792">RightColumn</text></g><!--SRC=[fP1B2i9038Rtdg8Ue0Pw0wakAheGlK2SXZPq9Xdc8VJsriUYkohkyeVl_mA90ul7WAwmB9H6JuLNEpx3QirYR6wfs42lZi11LLLbfBlXeNHiUYGBCHWuQPijHTXXmaOITG4Jgy1E7RB02RrdwU0GLIPqAkqbSHe_-utFpiwFNJG7Go-69-ixNl5cQGbjPddypbkhpKwMs3h7fEwSAIngjrsW3fE620Tb-G6lLLf-Fcus7bc6FnMl-WC0]--></g></svg>